# xmcd
#
# Track frame offsets:
#	150
#	11189
#	19452
#	26229
#	35391
#	50625
#	61012
#	72779
#	85798
#	100983
#	111597
#	124714
#	134086
#	143981
#	156638
#
# Disc length: 2270 seconds
#
# Revision: 1
# Processed by: cddbd v1.5.2PL0 Copyright (c) Steve Scherf et al.
# Submitted via: audiograbber 1.83.01
#
DISCID=e108dc0f
DTITLE=Tom Astor - Wunderbar ist die Welt
DYEAR=1900
DGENRE=Country
TTITLE0=Wunderbar ist die Welt
TTITLE1=In der Strasse, mein Schatz, wo du lebst
TTITLE2=Tonight
TTITLE3=Mexikanische Serenade
TTITLE4=Der Wind leis' ein Lied singt
TTITLE5=La La La
TTITLE6=Wenn zwei junge Herzen träumen
TTITLE7=Freu dich über jeden Tag
TTITLE8=Die Antwort weiss ganz allein der Wind
TTITLE9=La Novia
TTITLE10=Wenn auch nicht alle Wünsche in Erfüllung geh'n
TTITLE11=Mit 'nem Teelöffel Zucker
TTITLE12=Jeder Traum hat ein Ende
TTITLE13=Sag' warum gingst du fort
TTITLE14=Goodbye Marietta
EXTD=
EXTT0=
EXTT1=
EXTT2=
EXTT3=
EXTT4=
EXTT5=
EXTT6=
EXTT7=
EXTT8=
EXTT9=
EXTT10=
EXTT11=
EXTT12=
EXTT13=
EXTT14=
PLAYORDER=
